<mxfile host="app.diagrams.net" modified="2023-06-25T02:50:19.739Z" agent="Mozilla/5.0 (Windows NT 10.0; Win64; x64) AppleWebKit/537.36 (KHTML, like Gecko) Chrome/114.0.0.0 Safari/537.36" etag="8igMnTZgPbMsJLjYxZJd" version="21.5.0" type="github">
  <diagram name="Página-1" id="BQv2h3TFub3lITAPNev2">
    <mxGraphModel dx="352" dy="181" grid="1" gridSize="10" guides="1" tooltips="1" connect="1" arrows="1" fold="1" page="1" pageScale="1" pageWidth="827" pageHeight="1169" math="0" shadow="0">
      <root>
        <mxCell id="0" />
        <mxCell id="1" parent="0" />
        <mxCell id="U5AN6EbYWZd2xF8no-8S-5" value="Pool" style="swimlane;childLayout=stackLayout;resizeParent=1;resizeParentMax=0;startSize=20;horizontal=0;horizontalStack=1;fontSize=8;" vertex="1" parent="1">
          <mxGeometry x="170" y="220" width="650" height="1240" as="geometry" />
        </mxCell>
        <mxCell id="U5AN6EbYWZd2xF8no-8S-6" value="CLIENTE" style="swimlane;startSize=20;" vertex="1" parent="U5AN6EbYWZd2xF8no-8S-5">
          <mxGeometry x="20" width="220" height="1240" as="geometry" />
        </mxCell>
        <mxCell id="U5AN6EbYWZd2xF8no-8S-9" value="" style="ellipse;html=1;shape=startState;fillColor=#000000;strokeColor=#ff0000;" vertex="1" parent="U5AN6EbYWZd2xF8no-8S-6">
          <mxGeometry x="52" y="30" width="30" height="30" as="geometry" />
        </mxCell>
        <mxCell id="U5AN6EbYWZd2xF8no-8S-10" value="" style="edgeStyle=orthogonalEdgeStyle;html=1;verticalAlign=bottom;endArrow=open;endSize=8;strokeColor=#ff0000;rounded=0;entryX=0.52;entryY=-0.075;entryDx=0;entryDy=0;entryPerimeter=0;" edge="1" source="U5AN6EbYWZd2xF8no-8S-9" parent="U5AN6EbYWZd2xF8no-8S-6" target="U5AN6EbYWZd2xF8no-8S-12">
          <mxGeometry relative="1" as="geometry">
            <mxPoint x="60" y="120" as="targetPoint" />
          </mxGeometry>
        </mxCell>
        <mxCell id="U5AN6EbYWZd2xF8no-8S-13" value="&lt;font style=&quot;vertical-align: inherit; font-size: 10px;&quot;&gt;&lt;font style=&quot;vertical-align: inherit; font-size: 10px;&quot;&gt;&lt;font style=&quot;vertical-align: inherit; font-size: 10px;&quot;&gt;&lt;font style=&quot;vertical-align: inherit; font-size: 10px;&quot;&gt;Solicita agendar uma consulta para o seu animal&lt;/font&gt;&lt;/font&gt;&lt;/font&gt;&lt;/font&gt;" style="html=1;whiteSpace=wrap;fontSize=10;" vertex="1" parent="U5AN6EbYWZd2xF8no-8S-6">
          <mxGeometry x="10" y="280" width="100" height="40" as="geometry" />
        </mxCell>
        <mxCell id="U5AN6EbYWZd2xF8no-8S-23" value="" style="ellipse;html=1;shape=endState;fillColor=#000000;strokeColor=#ff0000;" vertex="1" parent="U5AN6EbYWZd2xF8no-8S-6">
          <mxGeometry x="12" y="429" width="30" height="30" as="geometry" />
        </mxCell>
        <mxCell id="U5AN6EbYWZd2xF8no-8S-30" value="&lt;font style=&quot;vertical-align: inherit;&quot;&gt;&lt;font style=&quot;vertical-align: inherit;&quot;&gt;Cliente tem os dados&lt;/font&gt;&lt;/font&gt;" style="rhombus;whiteSpace=wrap;html=1;fontSize=9;" vertex="1" parent="U5AN6EbYWZd2xF8no-8S-6">
          <mxGeometry x="92" y="590" width="89" height="100" as="geometry" />
        </mxCell>
        <mxCell id="U5AN6EbYWZd2xF8no-8S-12" value="&lt;font style=&quot;vertical-align: inherit;&quot;&gt;&lt;font style=&quot;vertical-align: inherit;&quot;&gt;Cliente entra na petshop&lt;/font&gt;&lt;/font&gt;" style="html=1;whiteSpace=wrap;" vertex="1" parent="U5AN6EbYWZd2xF8no-8S-6">
          <mxGeometry x="20" y="120" width="90" height="40" as="geometry" />
        </mxCell>
        <mxCell id="U5AN6EbYWZd2xF8no-8S-62" value="&lt;font style=&quot;vertical-align: inherit;&quot;&gt;&lt;font style=&quot;vertical-align: inherit;&quot;&gt;Já é cadastrado&lt;/font&gt;&lt;/font&gt;" style="rhombus;whiteSpace=wrap;html=1;fontSize=9;" vertex="1" parent="U5AN6EbYWZd2xF8no-8S-6">
          <mxGeometry x="11" y="470" width="89" height="100" as="geometry" />
        </mxCell>
        <mxCell id="U5AN6EbYWZd2xF8no-8S-7" value="ATENDENTE" style="swimlane;startSize=20;" vertex="1" parent="U5AN6EbYWZd2xF8no-8S-5">
          <mxGeometry x="240" width="230" height="1240" as="geometry" />
        </mxCell>
        <mxCell id="U5AN6EbYWZd2xF8no-8S-11" value="&lt;font style=&quot;vertical-align: inherit;&quot;&gt;&lt;font style=&quot;vertical-align: inherit;&quot;&gt;&lt;font style=&quot;vertical-align: inherit;&quot;&gt;&lt;font style=&quot;vertical-align: inherit;&quot;&gt;Cumprimenta e pergunta o que deseja&lt;/font&gt;&lt;/font&gt;&lt;/font&gt;&lt;/font&gt;" style="html=1;whiteSpace=wrap;" vertex="1" parent="U5AN6EbYWZd2xF8no-8S-7">
          <mxGeometry x="53" y="120" width="95" height="40" as="geometry" />
        </mxCell>
        <mxCell id="U5AN6EbYWZd2xF8no-8S-14" value="&lt;font style=&quot;vertical-align: inherit; font-size: 9px;&quot;&gt;&lt;font style=&quot;vertical-align: inherit; font-size: 9px;&quot;&gt;&lt;font style=&quot;vertical-align: inherit; font-size: 9px;&quot;&gt;&lt;font style=&quot;vertical-align: inherit; font-size: 9px;&quot;&gt;acessa o sistema e informa os dias diponiveis e horário&lt;/font&gt;&lt;/font&gt;&lt;/font&gt;&lt;/font&gt;" style="html=1;whiteSpace=wrap;fontSize=9;" vertex="1" parent="U5AN6EbYWZd2xF8no-8S-7">
          <mxGeometry x="49" y="280" width="90" height="40" as="geometry" />
        </mxCell>
        <mxCell id="U5AN6EbYWZd2xF8no-8S-20" value="&lt;font style=&quot;vertical-align: inherit;&quot;&gt;&lt;font style=&quot;vertical-align: inherit;&quot;&gt;Preenche o cadastro do cliente&lt;/font&gt;&lt;/font&gt;" style="html=1;whiteSpace=wrap;" vertex="1" parent="U5AN6EbYWZd2xF8no-8S-7">
          <mxGeometry x="85" y="620" width="90" height="40" as="geometry" />
        </mxCell>
        <mxCell id="U5AN6EbYWZd2xF8no-8S-39" style="edgeStyle=orthogonalEdgeStyle;rounded=0;orthogonalLoop=1;jettySize=auto;html=1;exitX=0.5;exitY=1;exitDx=0;exitDy=0;entryX=0.5;entryY=0;entryDx=0;entryDy=0;" edge="1" parent="U5AN6EbYWZd2xF8no-8S-7" source="U5AN6EbYWZd2xF8no-8S-37" target="U5AN6EbYWZd2xF8no-8S-34">
          <mxGeometry relative="1" as="geometry" />
        </mxCell>
        <mxCell id="U5AN6EbYWZd2xF8no-8S-37" value="Informa que não será possível agendar sem os dados mínimos do cliente" style="html=1;whiteSpace=wrap;fontSize=8;" vertex="1" parent="U5AN6EbYWZd2xF8no-8S-7">
          <mxGeometry x="15" y="690" width="90" height="40" as="geometry" />
        </mxCell>
        <mxCell id="U5AN6EbYWZd2xF8no-8S-34" value="" style="ellipse;html=1;shape=endState;fillColor=#000000;strokeColor=#ff0000;" vertex="1" parent="U5AN6EbYWZd2xF8no-8S-7">
          <mxGeometry x="45" y="750" width="30" height="30" as="geometry" />
        </mxCell>
        <mxCell id="U5AN6EbYWZd2xF8no-8S-52" style="edgeStyle=orthogonalEdgeStyle;rounded=0;orthogonalLoop=1;jettySize=auto;html=1;entryX=0;entryY=0.5;entryDx=0;entryDy=0;" edge="1" parent="U5AN6EbYWZd2xF8no-8S-7" source="U5AN6EbYWZd2xF8no-8S-42" target="U5AN6EbYWZd2xF8no-8S-49">
          <mxGeometry relative="1" as="geometry" />
        </mxCell>
        <mxCell id="U5AN6EbYWZd2xF8no-8S-56" value="SIM" style="edgeLabel;html=1;align=center;verticalAlign=middle;resizable=0;points=[];" vertex="1" connectable="0" parent="U5AN6EbYWZd2xF8no-8S-52">
          <mxGeometry x="-0.7143" y="-1" relative="1" as="geometry">
            <mxPoint as="offset" />
          </mxGeometry>
        </mxCell>
        <mxCell id="U5AN6EbYWZd2xF8no-8S-42" value="Tem os dado mínimos&amp;nbsp;" style="rhombus;whiteSpace=wrap;html=1;fontSize=9;" vertex="1" parent="U5AN6EbYWZd2xF8no-8S-7">
          <mxGeometry x="-134" y="934" width="89" height="76" as="geometry" />
        </mxCell>
        <mxCell id="U5AN6EbYWZd2xF8no-8S-49" value="Preenche o cadastro do animal e completa na consulta" style="html=1;whiteSpace=wrap;fontSize=11;" vertex="1" parent="U5AN6EbYWZd2xF8no-8S-7">
          <mxGeometry x="93" y="958.5" width="120" height="51" as="geometry" />
        </mxCell>
        <mxCell id="U5AN6EbYWZd2xF8no-8S-58" value="" style="ellipse;html=1;shape=endState;fillColor=#000000;strokeColor=#ff0000;" vertex="1" parent="U5AN6EbYWZd2xF8no-8S-7">
          <mxGeometry x="138" y="1202" width="30" height="30" as="geometry" />
        </mxCell>
        <mxCell id="U5AN6EbYWZd2xF8no-8S-61" value="&lt;font style=&quot;vertical-align: inherit;&quot;&gt;&lt;font style=&quot;vertical-align: inherit;&quot;&gt;&lt;font style=&quot;vertical-align: inherit;&quot;&gt;&lt;font style=&quot;vertical-align: inherit;&quot;&gt;Solicitar dados para cadastro do cliente&lt;/font&gt;&lt;/font&gt;&lt;/font&gt;&lt;/font&gt;" style="html=1;whiteSpace=wrap;" vertex="1" parent="U5AN6EbYWZd2xF8no-8S-7">
          <mxGeometry x="33.5" y="508" width="121" height="50" as="geometry" />
        </mxCell>
        <mxCell id="U5AN6EbYWZd2xF8no-8S-77" value="" style="ellipse;html=1;shape=endState;fillColor=#000000;strokeColor=#ff0000;" vertex="1" parent="U5AN6EbYWZd2xF8no-8S-7">
          <mxGeometry x="33.5" y="1100" width="30" height="30" as="geometry" />
        </mxCell>
        <mxCell id="U5AN6EbYWZd2xF8no-8S-8" value="PROFISSIONAL" style="swimlane;startSize=20;" vertex="1" parent="U5AN6EbYWZd2xF8no-8S-5">
          <mxGeometry x="470" width="180" height="1240" as="geometry" />
        </mxCell>
        <mxCell id="U5AN6EbYWZd2xF8no-8S-18" style="edgeStyle=orthogonalEdgeStyle;rounded=0;orthogonalLoop=1;jettySize=auto;html=1;exitX=0.25;exitY=1;exitDx=0;exitDy=0;entryX=0.5;entryY=0;entryDx=0;entryDy=0;" edge="1" parent="U5AN6EbYWZd2xF8no-8S-5" source="U5AN6EbYWZd2xF8no-8S-11" target="U5AN6EbYWZd2xF8no-8S-13">
          <mxGeometry relative="1" as="geometry" />
        </mxCell>
        <mxCell id="U5AN6EbYWZd2xF8no-8S-19" style="edgeStyle=orthogonalEdgeStyle;rounded=0;orthogonalLoop=1;jettySize=auto;html=1;" edge="1" parent="U5AN6EbYWZd2xF8no-8S-5" source="U5AN6EbYWZd2xF8no-8S-13" target="U5AN6EbYWZd2xF8no-8S-14">
          <mxGeometry relative="1" as="geometry" />
        </mxCell>
        <mxCell id="U5AN6EbYWZd2xF8no-8S-28" style="edgeStyle=orthogonalEdgeStyle;rounded=0;orthogonalLoop=1;jettySize=auto;html=1;entryX=0.5;entryY=0;entryDx=0;entryDy=0;" edge="1" parent="U5AN6EbYWZd2xF8no-8S-5" target="U5AN6EbYWZd2xF8no-8S-23">
          <mxGeometry relative="1" as="geometry">
            <mxPoint x="100" y="420" as="sourcePoint" />
            <Array as="points">
              <mxPoint x="100" y="421" />
              <mxPoint x="80" y="421" />
              <mxPoint x="80" y="420" />
              <mxPoint x="47" y="420" />
            </Array>
          </mxGeometry>
        </mxCell>
        <mxCell id="U5AN6EbYWZd2xF8no-8S-29" value="&lt;font style=&quot;vertical-align: inherit;&quot;&gt;&lt;font style=&quot;vertical-align: inherit;&quot;&gt;NÃO&lt;/font&gt;&lt;/font&gt;" style="edgeLabel;html=1;align=center;verticalAlign=middle;resizable=0;points=[];" vertex="1" connectable="0" parent="U5AN6EbYWZd2xF8no-8S-28">
          <mxGeometry x="-0.3058" relative="1" as="geometry">
            <mxPoint as="offset" />
          </mxGeometry>
        </mxCell>
        <mxCell id="U5AN6EbYWZd2xF8no-8S-32" style="edgeStyle=orthogonalEdgeStyle;rounded=0;orthogonalLoop=1;jettySize=auto;html=1;entryX=0;entryY=0.5;entryDx=0;entryDy=0;" edge="1" parent="U5AN6EbYWZd2xF8no-8S-5" source="U5AN6EbYWZd2xF8no-8S-30" target="U5AN6EbYWZd2xF8no-8S-20">
          <mxGeometry relative="1" as="geometry" />
        </mxCell>
        <mxCell id="U5AN6EbYWZd2xF8no-8S-33" value="&lt;font style=&quot;vertical-align: inherit;&quot;&gt;&lt;font style=&quot;vertical-align: inherit;&quot;&gt;SIM&lt;/font&gt;&lt;/font&gt;" style="edgeLabel;html=1;align=center;verticalAlign=middle;resizable=0;points=[];" vertex="1" connectable="0" parent="U5AN6EbYWZd2xF8no-8S-32">
          <mxGeometry x="-0.7713" relative="1" as="geometry">
            <mxPoint as="offset" />
          </mxGeometry>
        </mxCell>
        <mxCell id="U5AN6EbYWZd2xF8no-8S-38" style="edgeStyle=orthogonalEdgeStyle;rounded=0;orthogonalLoop=1;jettySize=auto;html=1;exitX=1;exitY=1;exitDx=0;exitDy=0;" edge="1" parent="U5AN6EbYWZd2xF8no-8S-5" source="U5AN6EbYWZd2xF8no-8S-30" target="U5AN6EbYWZd2xF8no-8S-37">
          <mxGeometry relative="1" as="geometry" />
        </mxCell>
        <mxCell id="U5AN6EbYWZd2xF8no-8S-40" value="NÃO" style="edgeLabel;html=1;align=center;verticalAlign=middle;resizable=0;points=[];" vertex="1" connectable="0" parent="U5AN6EbYWZd2xF8no-8S-38">
          <mxGeometry x="-0.3583" y="-1" relative="1" as="geometry">
            <mxPoint as="offset" />
          </mxGeometry>
        </mxCell>
        <mxCell id="U5AN6EbYWZd2xF8no-8S-17" style="edgeStyle=orthogonalEdgeStyle;rounded=0;orthogonalLoop=1;jettySize=auto;html=1;" edge="1" parent="U5AN6EbYWZd2xF8no-8S-5" source="U5AN6EbYWZd2xF8no-8S-12" target="U5AN6EbYWZd2xF8no-8S-11">
          <mxGeometry relative="1" as="geometry" />
        </mxCell>
        <mxCell id="U5AN6EbYWZd2xF8no-8S-64" style="edgeStyle=orthogonalEdgeStyle;rounded=0;orthogonalLoop=1;jettySize=auto;html=1;entryX=0;entryY=0.25;entryDx=0;entryDy=0;" edge="1" parent="U5AN6EbYWZd2xF8no-8S-5" source="U5AN6EbYWZd2xF8no-8S-62" target="U5AN6EbYWZd2xF8no-8S-61">
          <mxGeometry relative="1" as="geometry" />
        </mxCell>
        <mxCell id="U5AN6EbYWZd2xF8no-8S-65" value="NÃO" style="edgeLabel;html=1;align=center;verticalAlign=middle;resizable=0;points=[];" vertex="1" connectable="0" parent="U5AN6EbYWZd2xF8no-8S-64">
          <mxGeometry x="-0.7263" relative="1" as="geometry">
            <mxPoint as="offset" />
          </mxGeometry>
        </mxCell>
        <mxCell id="U5AN6EbYWZd2xF8no-8S-66" style="edgeStyle=orthogonalEdgeStyle;rounded=0;orthogonalLoop=1;jettySize=auto;html=1;exitX=0;exitY=1;exitDx=0;exitDy=0;" edge="1" parent="U5AN6EbYWZd2xF8no-8S-5" source="U5AN6EbYWZd2xF8no-8S-61" target="U5AN6EbYWZd2xF8no-8S-30">
          <mxGeometry relative="1" as="geometry">
            <Array as="points">
              <mxPoint x="274" y="570" />
              <mxPoint x="157" y="570" />
            </Array>
          </mxGeometry>
        </mxCell>
        <mxCell id="U5AN6EbYWZd2xF8no-8S-63" style="edgeStyle=orthogonalEdgeStyle;rounded=0;orthogonalLoop=1;jettySize=auto;html=1;exitX=0;exitY=1;exitDx=0;exitDy=0;entryX=1;entryY=0;entryDx=0;entryDy=0;" edge="1" parent="1" source="U5AN6EbYWZd2xF8no-8S-31" target="U5AN6EbYWZd2xF8no-8S-62">
          <mxGeometry relative="1" as="geometry">
            <Array as="points">
              <mxPoint x="440" y="715" />
            </Array>
          </mxGeometry>
        </mxCell>
        <mxCell id="U5AN6EbYWZd2xF8no-8S-31" value="Perguntar se o cliente já é cadastrado" style="html=1;whiteSpace=wrap;" vertex="1" parent="1">
          <mxGeometry x="440" y="631" width="129" height="49" as="geometry" />
        </mxCell>
        <mxCell id="U5AN6EbYWZd2xF8no-8S-48" style="edgeStyle=orthogonalEdgeStyle;rounded=0;orthogonalLoop=1;jettySize=auto;html=1;exitX=0;exitY=1;exitDx=0;exitDy=0;entryX=0.5;entryY=0;entryDx=0;entryDy=0;" edge="1" parent="1" source="U5AN6EbYWZd2xF8no-8S-43" target="U5AN6EbYWZd2xF8no-8S-42">
          <mxGeometry relative="1" as="geometry">
            <Array as="points">
              <mxPoint x="505" y="1134" />
              <mxPoint x="321" y="1134" />
            </Array>
          </mxGeometry>
        </mxCell>
        <mxCell id="U5AN6EbYWZd2xF8no-8S-43" value="Solicita os dados do animal" style="html=1;whiteSpace=wrap;" vertex="1" parent="1">
          <mxGeometry x="505" y="1095" width="90" height="40" as="geometry" />
        </mxCell>
        <mxCell id="U5AN6EbYWZd2xF8no-8S-44" style="edgeStyle=orthogonalEdgeStyle;rounded=0;orthogonalLoop=1;jettySize=auto;html=1;exitX=1;exitY=0.5;exitDx=0;exitDy=0;entryX=0;entryY=0.5;entryDx=0;entryDy=0;" edge="1" parent="1" source="U5AN6EbYWZd2xF8no-8S-15" target="U5AN6EbYWZd2xF8no-8S-31">
          <mxGeometry relative="1" as="geometry" />
        </mxCell>
        <mxCell id="U5AN6EbYWZd2xF8no-8S-45" value="SIM" style="edgeLabel;html=1;align=center;verticalAlign=middle;resizable=0;points=[];" vertex="1" connectable="0" parent="U5AN6EbYWZd2xF8no-8S-44">
          <mxGeometry x="-0.26" y="1" relative="1" as="geometry">
            <mxPoint as="offset" />
          </mxGeometry>
        </mxCell>
        <mxCell id="U5AN6EbYWZd2xF8no-8S-47" style="edgeStyle=orthogonalEdgeStyle;rounded=0;orthogonalLoop=1;jettySize=auto;html=1;exitX=0.75;exitY=1;exitDx=0;exitDy=0;entryX=0.633;entryY=-0.05;entryDx=0;entryDy=0;entryPerimeter=0;" edge="1" parent="1" source="U5AN6EbYWZd2xF8no-8S-20" target="U5AN6EbYWZd2xF8no-8S-43">
          <mxGeometry relative="1" as="geometry" />
        </mxCell>
        <mxCell id="U5AN6EbYWZd2xF8no-8S-59" style="edgeStyle=orthogonalEdgeStyle;rounded=0;orthogonalLoop=1;jettySize=auto;html=1;exitX=0.5;exitY=1;exitDx=0;exitDy=0;entryX=0.5;entryY=0;entryDx=0;entryDy=0;" edge="1" parent="1" source="U5AN6EbYWZd2xF8no-8S-53" target="U5AN6EbYWZd2xF8no-8S-58">
          <mxGeometry relative="1" as="geometry" />
        </mxCell>
        <mxCell id="U5AN6EbYWZd2xF8no-8S-53" value="Agendar e Informa novamente o dia, horário e quem irá prestar a consulta e agradece a preferência" style="html=1;whiteSpace=wrap;fontSize=8;" vertex="1" parent="1">
          <mxGeometry x="503" y="1324.5" width="120" height="51" as="geometry" />
        </mxCell>
        <mxCell id="U5AN6EbYWZd2xF8no-8S-54" style="edgeStyle=orthogonalEdgeStyle;rounded=0;orthogonalLoop=1;jettySize=auto;html=1;exitX=0.5;exitY=1;exitDx=0;exitDy=0;" edge="1" parent="1" source="U5AN6EbYWZd2xF8no-8S-49" target="U5AN6EbYWZd2xF8no-8S-53">
          <mxGeometry relative="1" as="geometry" />
        </mxCell>
        <mxCell id="U5AN6EbYWZd2xF8no-8S-60" value="AGENDAMENTO DE CONSULTA" style="html=1;whiteSpace=wrap;" vertex="1" parent="1">
          <mxGeometry x="365" y="150" width="175" height="50" as="geometry" />
        </mxCell>
        <mxCell id="U5AN6EbYWZd2xF8no-8S-15" value="&lt;font style=&quot;vertical-align: inherit;&quot;&gt;&lt;font style=&quot;vertical-align: inherit;&quot;&gt;Se o cliente deseja alguns dos horários disponíveis&lt;/font&gt;&lt;/font&gt;" style="rhombus;whiteSpace=wrap;html=1;fontSize=9;" vertex="1" parent="1">
          <mxGeometry x="260" y="568" width="89" height="100" as="geometry" />
        </mxCell>
        <mxCell id="U5AN6EbYWZd2xF8no-8S-16" value="" style="edgeStyle=orthogonalEdgeStyle;rounded=0;orthogonalLoop=1;jettySize=auto;html=1;" edge="1" parent="1" source="U5AN6EbYWZd2xF8no-8S-14" target="U5AN6EbYWZd2xF8no-8S-15">
          <mxGeometry relative="1" as="geometry">
            <Array as="points">
              <mxPoint x="504" y="570" />
              <mxPoint x="316" y="570" />
            </Array>
          </mxGeometry>
        </mxCell>
        <mxCell id="U5AN6EbYWZd2xF8no-8S-71" style="edgeStyle=orthogonalEdgeStyle;rounded=0;orthogonalLoop=1;jettySize=auto;html=1;exitX=0;exitY=1;exitDx=0;exitDy=0;entryX=1;entryY=0;entryDx=0;entryDy=0;" edge="1" parent="1" source="U5AN6EbYWZd2xF8no-8S-67" target="U5AN6EbYWZd2xF8no-8S-70">
          <mxGeometry relative="1" as="geometry">
            <Array as="points">
              <mxPoint x="437" y="1057" />
            </Array>
          </mxGeometry>
        </mxCell>
        <mxCell id="U5AN6EbYWZd2xF8no-8S-67" value="Animal já é cadastrado" style="html=1;whiteSpace=wrap;" vertex="1" parent="1">
          <mxGeometry x="437" y="1004" width="90" height="40" as="geometry" />
        </mxCell>
        <mxCell id="U5AN6EbYWZd2xF8no-8S-68" style="edgeStyle=orthogonalEdgeStyle;rounded=0;orthogonalLoop=1;jettySize=auto;html=1;entryX=0;entryY=0.25;entryDx=0;entryDy=0;" edge="1" parent="1" source="U5AN6EbYWZd2xF8no-8S-62" target="U5AN6EbYWZd2xF8no-8S-67">
          <mxGeometry relative="1" as="geometry">
            <Array as="points">
              <mxPoint x="246" y="1014" />
            </Array>
          </mxGeometry>
        </mxCell>
        <mxCell id="U5AN6EbYWZd2xF8no-8S-69" value="SIM" style="edgeLabel;html=1;align=center;verticalAlign=middle;resizable=0;points=[];" vertex="1" connectable="0" parent="U5AN6EbYWZd2xF8no-8S-68">
          <mxGeometry x="-0.832" relative="1" as="geometry">
            <mxPoint as="offset" />
          </mxGeometry>
        </mxCell>
        <mxCell id="U5AN6EbYWZd2xF8no-8S-72" style="edgeStyle=orthogonalEdgeStyle;rounded=0;orthogonalLoop=1;jettySize=auto;html=1;entryX=0.011;entryY=0.163;entryDx=0;entryDy=0;entryPerimeter=0;" edge="1" parent="1" source="U5AN6EbYWZd2xF8no-8S-70" target="U5AN6EbYWZd2xF8no-8S-43">
          <mxGeometry relative="1" as="geometry" />
        </mxCell>
        <mxCell id="U5AN6EbYWZd2xF8no-8S-73" value="NÃO" style="edgeLabel;html=1;align=center;verticalAlign=middle;resizable=0;points=[];" vertex="1" connectable="0" parent="U5AN6EbYWZd2xF8no-8S-72">
          <mxGeometry x="-0.7827" y="1" relative="1" as="geometry">
            <mxPoint as="offset" />
          </mxGeometry>
        </mxCell>
        <mxCell id="U5AN6EbYWZd2xF8no-8S-75" style="edgeStyle=orthogonalEdgeStyle;rounded=0;orthogonalLoop=1;jettySize=auto;html=1;exitX=0.5;exitY=1;exitDx=0;exitDy=0;entryX=0;entryY=0.75;entryDx=0;entryDy=0;" edge="1" parent="1" source="U5AN6EbYWZd2xF8no-8S-70" target="U5AN6EbYWZd2xF8no-8S-53">
          <mxGeometry relative="1" as="geometry" />
        </mxCell>
        <mxCell id="U5AN6EbYWZd2xF8no-8S-76" value="SIM" style="edgeLabel;html=1;align=center;verticalAlign=middle;resizable=0;points=[];" vertex="1" connectable="0" parent="U5AN6EbYWZd2xF8no-8S-75">
          <mxGeometry x="-0.8698" y="-1" relative="1" as="geometry">
            <mxPoint as="offset" />
          </mxGeometry>
        </mxCell>
        <mxCell id="U5AN6EbYWZd2xF8no-8S-70" value="&lt;font style=&quot;vertical-align: inherit;&quot;&gt;&lt;font style=&quot;vertical-align: inherit;&quot;&gt;Já é cadastrado&lt;/font&gt;&lt;/font&gt;" style="rhombus;whiteSpace=wrap;html=1;fontSize=9;" vertex="1" parent="1">
          <mxGeometry x="211" y="1032" width="89" height="100" as="geometry" />
        </mxCell>
        <mxCell id="U5AN6EbYWZd2xF8no-8S-80" style="edgeStyle=orthogonalEdgeStyle;rounded=0;orthogonalLoop=1;jettySize=auto;html=1;entryX=0.5;entryY=0;entryDx=0;entryDy=0;exitX=0.25;exitY=1;exitDx=0;exitDy=0;" edge="1" parent="1" source="U5AN6EbYWZd2xF8no-8S-79" target="U5AN6EbYWZd2xF8no-8S-77">
          <mxGeometry relative="1" as="geometry" />
        </mxCell>
        <mxCell id="U5AN6EbYWZd2xF8no-8S-79" value="Informa que não será possível agendar sem os dados mínimos do ANIMAL" style="html=1;whiteSpace=wrap;fontSize=8;" vertex="1" parent="1">
          <mxGeometry x="439" y="1251" width="90" height="39" as="geometry" />
        </mxCell>
        <mxCell id="U5AN6EbYWZd2xF8no-8S-55" style="edgeStyle=orthogonalEdgeStyle;rounded=0;orthogonalLoop=1;jettySize=auto;html=1;exitX=0.509;exitY=1.074;exitDx=0;exitDy=0;entryX=0;entryY=0;entryDx=0;entryDy=0;exitPerimeter=0;" edge="1" parent="1" source="U5AN6EbYWZd2xF8no-8S-42" target="U5AN6EbYWZd2xF8no-8S-79">
          <mxGeometry relative="1" as="geometry">
            <mxPoint x="320.5" y="1186.9999999999998" as="sourcePoint" />
            <mxPoint x="323.28" y="1295.31" as="targetPoint" />
            <Array as="points">
              <mxPoint x="321" y="1250" />
              <mxPoint x="355" y="1250" />
              <mxPoint x="355" y="1251" />
            </Array>
          </mxGeometry>
        </mxCell>
        <mxCell id="U5AN6EbYWZd2xF8no-8S-57" value="NÃO" style="edgeLabel;html=1;align=center;verticalAlign=middle;resizable=0;points=[];" vertex="1" connectable="0" parent="U5AN6EbYWZd2xF8no-8S-55">
          <mxGeometry x="-0.3913" relative="1" as="geometry">
            <mxPoint as="offset" />
          </mxGeometry>
        </mxCell>
      </root>
    </mxGraphModel>
  </diagram>
</mxfile>
